<?xml version="1.0" standalone="no"?>
<!DOCTYPE svg PUBLIC "-//W3C//DTD SVG 20010904//EN"
 "http://www.w3.org/TR/2001/REC-SVG-20010904/DTD/svg10.dtd">
<svg version="1.0" xmlns="http://www.w3.org/2000/svg"
 width="980.000000pt" height="980.000000pt" viewBox="0 0 980.000000 980.000000"
 preserveAspectRatio="xMidYMid meet">
<metadata>
Created by potrace 1.16, written by Peter Selinger 2001-2019
</metadata>
<g transform="translate(0.000000,980.000000) scale(0.100000,-0.100000)"
fill="#000000" stroke="none">
<path d="M3815 6759 c-44 -5 -132 -21 -195 -35 -562 -126 -898 -418 -1069
-931 -180 -539 -109 -1204 175 -1639 69 -107 220 -261 321 -327 137 -91 276
-153 459 -207 61 -18 73 -26 86 -53 62 -129 259 -278 483 -367 111 -44 425
-143 425 -133 0 6 -47 76 -121 178 -53 74 -138 230 -154 283 -4 15 -2 22 7 22
7 0 52 5 98 10 205 26 410 85 586 170 l104 50 85 -65 c178 -135 426 -229 688
-260 39 -5 57 -12 57 -21 0 -35 -88 -183 -199 -333 -30 -41 -48 -72 -40 -69 8
3 61 20 119 37 237 73 364 125 471 193 68 43 168 141 193 190 18 33 28 39 105
63 205 63 359 152 486 279 136 136 211 261 280 470 54 162 78 322 78 521 0
187 -10 275 -53 440 -69 268 -206 493 -381 627 -240 183 -547 277 -908 278
-177 0 -399 -32 -511 -74 -11 -4 -34 24 -80 97 -190 300 -517 499 -957 583
-115 22 -173 27 -348 29 -115 2 -246 -1 -290 -6z m537 -174 c333 -49 613 -178
793 -367 75 -77 165 -200 165 -223 0 -5 -32 -27 -71 -48 -277 -150 -441 -375
-534 -735 -85 -325 -64 -727 52 -1022 19 -47 112 -219 139 -258 16 -22 16 -22
-68 -62 -209 -97 -491 -160 -725 -160 -75 0 -83 -2 -83 -19 0 -56 59 -269 83
-299 20 -26 -5 -25 -61 2 -150 74 -270 180 -327 291 l-30 59 -85 22 c-439 112
-711 340 -860 720 -91 234 -125 443 -117 734 8 282 51 476 156 696 61 128 114
207 204 301 283 298 833 446 1369 368z m1933 -640 c50 -9 137 -32 194 -51 395
-131 605 -392 683 -849 26 -156 21 -437 -11 -582 -98 -443 -320 -686 -736
-803 -61 -17 -111 -34 -113 -38 -1 -5 -19 -37 -40 -71 -25 -44 -58 -80 -102
-115 -64 -50 -140 -96 -159 -96 -5 0 -1 21 9 48 10 26 23 74 29 107 7 33 14
70 16 82 5 20 1 21 -103 27 -325 19 -581 105 -777 261 -15 12 -17 18 -7 24 7
4 51 45 97 90 264 260 415 687 415 1176 0 268 -43 516 -124 710 -15 35 -15 36
9 45 28 11 219 47 280 54 81 8 353 -3 440 -19z m-864 -196 c133 -415 116 -916
-44 -1294 -57 -134 -179 -317 -260 -390 -33 -30 -64 -55 -68 -55 -9 0 -64 86
-95 151 -31 63 -79 217 -99 314 -21 102 -37 299 -30 380 32 383 117 604 312
811 68 72 223 179 247 171 5 -2 22 -41 37 -88z"/>
</g>
</svg>
